<?xml version="1.0" standalone="no"?><!DOCTYPE svg PUBLIC "-//W3C//DTD SVG 1.1//EN" "http://www.w3.org/Graphics/SVG/1.1/DTD/svg11.dtd"><svg t="1709018301918" class="icon" viewBox="0 0 1024 1024" version="1.1" xmlns="http://www.w3.org/2000/svg" p-id="1988" xmlns:xlink="http://www.w3.org/1999/xlink" width="200" height="200"><path d="M641.450667 877.952s-198.826667 22.784-392.192-134.186667c-193.408-157.013333-115.2-592.554667-115.2-592.554666s330.666667-88.192 573.141333 66.133333c242.517333 154.325333 149.973333 449.706667 149.973333 449.706667" fill="#629C15" p-id="1989"></path><path d="M134.016 151.210667l-32.554667-5.802667v0.085333l-0.042666 0.298667-0.213334 1.109333a484.608 484.608 0 0 0-2.901333 18.602667 1290.368 1290.368 0 0 0-12.245333 224.298667c2.389333 66.005333 11.008 138.368 32.042666 205.098666 21.077333 66.645333 55.253333 129.834667 110.293334 174.506667 101.802667 82.645333 205.226667 118.058667 283.349333 132.821333 39.082667 7.338667 71.850667 9.557333 95.146667 9.898667a400.597333 400.597333 0 0 0 35.114666-1.024l2.176-0.213333 0.682667-0.042667h0.213333l0.085334-0.042667-3.712-32.853333 3.754666 32.853333a33.066667 33.066667 0 0 0-7.509333-65.706666h-0.128l-1.194667 0.128a335.957333 335.957333 0 0 1-28.501333 0.768c-20.053333-0.298667-49.066667-2.218667-83.882667-8.789334-69.546667-13.098667-162.261333-44.714667-253.866666-119.125333-41.685333-33.792-70.229333-83.925333-88.917334-143.104-18.688-59.093333-26.794667-125.013333-29.013333-187.562667a1224.277333 1224.277333 0 0 1 11.093333-208.981333c8.362667-1.792 19.029333-3.84 31.701334-5.973333a968.106667 968.106667 0 0 1 135.509333-12.970667c109.866667-2.688 245.589333 13.610667 358.954667 85.76 109.952 69.973333 144.042667 171.221333 150.698666 257.365333a472.576 472.576 0 0 1-11.605333 143.616 266.837333 266.837333 0 0 1-2.816 10.581334l-0.128 0.426666a33.066667 33.066667 0 0 0 63.146667 19.754667l-31.573334-9.898667 31.573334 9.898667v-0.170667l0.128-0.298666 0.256-0.853334 0.853333-2.986666c0.682667-2.56 1.706667-6.144 2.773333-10.709334a538.624 538.624 0 0 0 13.312-164.437333c-7.68-100.096-48.554667-223.744-181.12-308.053333-129.109333-82.218667-279.978667-98.986667-396.074666-96.128a1034.368 1034.368 0 0 0-144.896 13.866666 847.061333 847.061333 0 0 0-57.173334 11.690667l-0.896 0.256-0.256 0.042667h-0.085333s-0.042667 0.042667 8.448 32z m0 0l-8.533333-31.957334a33.109333 33.109333 0 0 0-24.021334 26.154667l32.554667 5.802667z" fill="#333333" p-id="1990"></path><path d="M273.536 275.968a33.066667 33.066667 0 0 1 44.373333 14.762667c3.712 7.381333 12.586667 20.053333 28.074667 38.997333 14.976 18.346667 34.56 40.576 57.941333 66.730667 10.922667 12.245333 22.698667 25.258667 35.114667 39.082666 40.234667 44.629333 87.637333 97.237333 138.112 156.16 65.024 64.896 151.893333 140.928 223.061333 201.130667a7178.325333 7178.325333 0 0 0 123.605334 102.186667l2.432 1.92-20.650667 25.856-20.650667 25.813333-2.56-2.048-7.296-5.888c-6.314667-5.12-15.530667-12.544-26.922666-21.930667a7215.957333 7215.957333 0 0 1-90.666667-75.434666c-71.808-60.757333-160.853333-138.624-228.010667-205.781334A2182.954667 2182.954667 0 0 1 294.826667 371.626667c-15.530667-18.944-28.672-36.608-36.010667-51.285334a33.066667 33.066667 0 0 1 14.762667-44.373333z m632.064 646.826667l-20.650667 25.813333a33.066667 33.066667 0 1 0 41.301334-51.626667l-20.650667 25.813334z" fill="#333333" p-id="1991"></path><path d="M604.245333 320a33.066667 33.066667 0 0 1 44.373334 14.848c7.68 15.36 13.824 38.4 18.133333 63.146667 4.437333 25.6 7.381333 55.722667 7.381333 86.613333 0 30.848-2.901333 63.402667-10.666666 93.44-7.765333 29.738667-20.906667 59.306667-43.093334 81.536a33.066667 33.066667 0 0 1-46.762666-46.762667c10.837333-10.88 19.754667-28.117333 25.813333-51.413333 5.973333-23.04 8.576-49.706667 8.576-76.8 0-26.88-2.56-53.248-6.4-75.264-3.968-22.741333-8.832-38.272-12.16-44.928a33.066667 33.066667 0 0 1 14.805333-44.373333zM258.773333 555.264a33.066667 33.066667 0 0 1 44.373334-14.762667c7.765333 3.84 16.512 8.96 24.490666 13.568l11.221334 6.4c11.434667 6.357333 23.253333 12.202667 37.12 16.810667 27.136 9.045333 65.664 14.549333 127.402666 4.266667a33.066667 33.066667 0 0 1 10.837334 65.237333c-70.528 11.733333-120.192 6.229333-159.146667-6.784a280.32 280.32 0 0 1-48.341333-21.76c-5.845333-3.2-10.666667-5.973333-14.976-8.533333a321.28 321.28 0 0 0-18.218667-10.069334 33.066667 33.066667 0 0 1-14.762667-44.373333z" fill="#333333" p-id="1992"></path></svg>